<svg width="1200" height="630" viewBox="0 0 72 106" fill="none" xmlns="http://www.w3.org/2000/svg">
<path d="M8.05 105.6C5.05 105.6 2.5 105.4 0.4 105V90C2 90.4 3.8 90.6 5.8 90.6C9.1 90.6 11.55 89.8 13.15 88.2C14.75 86.5 15.55 83.95 15.55 80.55V-7.15256e-06H32.05V80.1C32.05 88.7 30.05 95.1 26.05 99.3C22.15 103.5 16.15 105.6 8.05 105.6ZM47.7473 105.6C44.7473 105.6 42.1973 105.4 40.0973 105V90C41.6973 90.4 43.4973 90.6 45.4973 90.6C48.7973 90.6 51.2473 89.8 52.8473 88.2C54.4473 86.5 55.2473 83.95 55.2473 80.55V-7.15256e-06H71.7473V80.1C71.7473 88.7 69.7473 95.1 65.7473 99.3C61.8473 103.5 55.8473 105.6 47.7473 105.6Z" fill="#ACD4F6"/>
</svg>
